<svg width="51" height="41" viewBox="0 0 51 41" fill="none" xmlns="http://www.w3.org/2000/svg">
<path d="M16.8793 18.0927L11.3981 2.27273C10.3285 -0.757575 7.69931 -0.757575 6.62979 2.27273L1.10394 18.0927C0.836563 18.8503 0.747437 19.697 0.747437 20.4991C0.747437 21.3012 0.836563 22.1479 1.10394 22.9055L6.58523 38.6809C7.65474 41.7112 10.284 41.7112 11.3535 38.6809L16.8348 22.9055C17.1022 22.1479 17.2358 21.3012 17.1913 20.4991C17.2358 19.697 17.1467 18.8503 16.8793 18.0927Z" fill="#3E2973"/>
<path d="M33.3677 18.0927L27.8865 2.27273C26.8169 -0.757575 24.1877 -0.757575 23.1182 2.27273L17.5923 18.0927C17.325 18.8503 17.2358 19.697 17.2358 20.4991C17.2358 21.3012 17.325 22.1479 17.5923 22.9055L23.0736 38.6809C24.1431 41.7112 26.7724 41.7112 27.8419 38.6809L33.3232 22.9055C33.5906 22.1479 33.7243 21.3012 33.6797 20.4991C33.7688 19.697 33.6351 18.8503 33.3677 18.0927Z" fill="#3E2973"/>
<path d="M49.9007 18.0927L44.3749 2.27273C43.3054 -0.757575 40.6761 -0.757575 39.6066 2.27273L34.1253 18.0927C33.8579 18.8503 33.7243 19.697 33.7688 20.4991C33.7688 21.3012 33.8579 22.1479 34.1253 22.9055L39.6066 38.6809C40.6761 41.7112 43.3054 41.7112 44.3749 38.6809L49.8562 22.9055C50.1235 22.1479 50.2572 21.3012 50.2127 20.4991C50.2572 19.697 50.1681 18.8503 49.9007 18.0927Z" fill="#3E2973"/>
</svg>
