<svg width="49" height="48" viewBox="0 0 49 48" fill="none" xmlns="http://www.w3.org/2000/svg">
<path fill-rule="evenodd" clip-rule="evenodd" d="M17.7636 4.25064C17.3625 4.74083 14.4659 8.39502 15.0452 13.3415C15.6246 18.1989 19.4124 22.3879 24.6263 23.9476C23.7796 23.9922 17.9864 24.0813 14.4214 19.7587C10.1878 14.6784 11.3911 6.21142 16.3821 2.33442C19.539 -0.155475 23.3612 -0.0280283 24.7064 0.0168229L24.7155 0.017127C23.646 0.284507 20.3483 1.13121 17.7636 4.25064ZM11.0345 19.6249C8.08729 15.7099 8.74406 11.1436 8.8472 10.4264L8.85095 10.4003C9.5194 6.38964 11.9704 3.98322 12.7725 3.27021C11.5247 3.84953 8.1825 5.67663 6.66735 9.37538C4.30549 15.2577 7.46949 23.1454 13.7083 25.4627C18.9668 27.4235 23.9133 24.4378 24.6263 23.9921C19.3233 25.2845 13.9757 23.5465 11.0345 19.6249ZM4.21638 20.1152C4.4392 20.6945 6.1326 25.0617 10.7226 27.0225C15.2168 28.9804 20.6884 27.7837 24.6531 24.0979L24.6709 24.0367C24.7155 24.8834 24.8046 30.6766 20.482 34.2416C15.4017 38.4752 6.93472 37.2719 3.05772 32.2809C0.562175 29.1169 0.695865 25.329 0.784992 23.9475C1.05237 25.017 1.89907 28.3147 5.0185 30.8994C5.5087 31.3005 9.16289 34.1971 14.1094 33.6178C18.9364 33.0421 23.1032 29.3419 24.6421 24.1353C24.1494 25.0509 21.345 29.8944 15.9365 30.8104C9.38572 31.8799 2.70123 26.666 1.80996 20.3826C1.2752 16.3719 3.23599 13.1188 4.03813 12.0047C3.72618 13.0296 2.79035 16.3273 4.21638 20.1152ZM34.3857 34.5536C34.965 39.5001 32.0684 43.1543 31.6673 43.6445C29.0826 46.7639 25.785 47.6106 24.7154 47.878C26.0969 47.9671 29.8848 48.1008 33.0488 45.6053C38.0398 41.7283 39.2431 33.2612 35.0095 28.181C31.4445 23.8584 25.6513 23.9475 24.8046 23.9921C30.063 25.5072 33.8063 29.6962 34.3857 34.5536ZM27.7903 37.9851C25.8295 42.5305 21.4623 44.2685 20.883 44.4913C17.0951 45.9173 13.7974 44.9815 12.7725 44.6695C13.8865 45.4717 17.1397 47.4325 21.1504 46.8977C27.4338 46.0064 32.6477 39.322 31.5782 32.7712C30.6423 27.2453 25.6067 24.4378 24.8491 24.0368C28.5479 27.9583 29.7511 33.4842 27.7903 37.9851ZM11.1944 39.8159C11.9115 39.919 16.4778 40.5758 20.3928 37.6286C24.3144 34.7319 26.0524 29.3398 24.8046 24.0368C25.2502 24.7498 28.236 29.6963 26.2752 34.9548C23.9579 41.1936 16.0256 44.3576 10.1879 41.9958C6.44454 40.4806 4.61744 37.1384 4.03812 35.8906C4.75113 36.6927 7.15755 39.1437 11.1682 39.8122L11.1944 39.8159ZM21.6406 9.95482C23.6014 5.3648 27.9686 3.6714 28.5479 3.44858C32.3358 2.02256 35.6335 2.95839 36.6585 3.27033C35.5444 2.46819 32.2913 0.507406 28.2806 1.04217C21.9971 1.93343 16.7832 8.61792 17.8528 15.1687C18.7886 20.6946 23.8242 23.5021 24.5818 23.9031C20.8831 19.937 19.7244 14.4557 21.6406 9.95482ZM38.2811 8.07928C37.564 7.97614 32.9977 7.31937 29.0826 10.2666C25.1611 13.2078 23.4231 18.5554 24.6709 23.8584C24.2252 23.1454 21.2395 18.1989 23.2003 12.9404C25.5176 6.70156 33.4498 3.53757 39.2876 5.89943C43.0309 7.41458 44.858 10.7568 45.4374 12.0046C44.7243 11.2025 42.3179 8.75148 38.3072 8.08303L38.2811 8.07928ZM35.3215 14.2774C40.268 13.6981 43.9222 16.5947 44.4124 16.9958C47.5318 19.5805 48.3785 22.8781 48.6459 23.9477C48.735 22.5662 48.8687 18.7783 46.3732 15.6143C42.4962 10.6232 34.0291 9.42004 28.9489 13.6535C24.6263 17.2186 24.7154 23.0118 24.76 23.8585C26.2751 18.6446 30.4641 14.8568 35.3215 14.2774ZM45.2591 27.7801C45.0363 27.2007 43.3429 22.8335 38.7528 20.8728C34.2519 18.9565 28.7261 20.1152 24.8045 23.8139C25.2056 23.0564 28.0131 18.0207 33.5389 17.0849C40.0897 16.0154 46.7742 21.2293 47.6655 27.5127C48.2003 31.5234 46.2395 34.7765 45.4373 35.8906C45.7493 34.8656 46.6851 31.5679 45.2591 27.7801ZM38.3963 28.3147C41.3436 32.2298 40.6868 36.7961 40.5837 37.5132L40.5799 37.5393C39.9115 41.55 37.4605 43.9564 36.6584 44.6695C37.9061 44.0901 41.2484 42.263 42.7635 38.5197C45.1254 32.6819 41.9614 24.7497 35.7225 22.4324C30.4641 20.4716 25.5176 23.4573 24.8045 23.903C30.1076 22.6552 35.4997 24.3932 38.3963 28.3147Z" fill="#284E95"/>
</svg>
