<svg width="39" height="50" viewBox="0 0 39 50" fill="none" xmlns="http://www.w3.org/2000/svg">
<path fill-rule="evenodd" clip-rule="evenodd" d="M19.4298 21.5241C19.3852 22.0588 19.3406 22.0588 19.2961 21.5241L18.7613 11.3636L18.5981 8.26186C9.87753 9.72111 3.25078 17.258 3.20874 26.3815C3.12446 35.5256 9.7343 43.1555 18.4415 44.7123L18.7613 38.6364L19.2961 28.4759C19.3406 27.9412 19.3852 27.9412 19.4298 28.4759L19.9645 38.6364L20.2811 44.6517C28.8904 43.1273 35.4753 35.6271 35.5171 26.5597C35.5594 17.3754 28.9289 9.71851 20.1306 8.20871L19.9645 11.3636L19.4298 21.5241ZM20.2976 44.9644C30.4319 44.9258 38.6813 36.7576 38.7256 26.6043C38.7702 16.3993 30.526 8.06596 20.321 7.97683L20.1428 7.97689L20.4993 1.20321C20.5439 0.668449 20.4993 0 20.4102 0H19.3406H18.2711C18.2266 0 18.182 0.668449 18.2266 1.20321L18.5831 7.97684C8.37807 7.93228 0.0447441 16.1765 0.000180785 26.3815C-0.0443825 36.5865 8.15526 44.9198 18.3602 44.9644C18.3829 44.9644 18.4056 44.9644 18.4283 44.9644L18.2266 48.7968C18.182 49.3315 18.2266 50 18.2711 50H19.3852H20.4547C20.4993 50 20.5439 49.3315 20.4993 48.7968L20.2976 44.9644Z" fill="#3E2973"/>
</svg>
