<svg width="32" height="50" viewBox="0 0 32 50" fill="none" xmlns="http://www.w3.org/2000/svg">
<path fill-rule="evenodd" clip-rule="evenodd" d="M29.7141 1.87166C30.9894 3.147 31.613 4.8297 31.5848 6.49745C31.6029 8.15302 30.9792 9.80868 29.7135 11.0517C27.2626 13.5473 27.2626 17.558 29.7135 20.0535C32.2091 22.5936 32.2091 26.6489 29.7135 29.1444C27.218 31.6399 23.1627 31.6399 20.7118 29.1444C20.6 29.0327 20.4933 28.9179 20.3915 28.8003C17.884 26.6086 14.1013 26.7084 11.71 29.0998C11.7081 29.1017 11.7062 29.1035 11.7044 29.1054C11.6769 29.1334 11.649 29.1613 11.6209 29.1889C9.16989 31.6845 9.16989 35.6952 11.6209 38.1907C11.7885 38.3584 11.945 38.5331 12.0901 38.7139C14.5976 40.814 18.3393 40.699 20.7118 38.369C23.2073 35.8734 27.218 35.8734 29.7135 38.369C32.2091 40.8645 32.2091 44.9198 29.7135 47.3708C27.218 49.8663 23.2073 49.8663 20.7118 47.3708C18.2162 44.8752 14.2055 44.8752 11.71 47.3708C9.21443 49.8663 5.15917 49.8663 2.70819 47.3708C2.26256 46.9251 1.90606 46.4349 1.59411 45.9002C1.50316 45.7308 1.42037 45.5579 1.34577 45.3821C0.241387 43.0255 0.665828 40.144 2.61909 38.1907C5.11464 35.6952 5.11464 31.6845 2.61909 29.1889C1.33829 27.9081 0.714843 26.2165 0.748748 24.5417C0.773692 22.9374 1.39396 21.341 2.61907 20.1426C5.11461 17.647 9.16987 17.647 11.6208 20.1426C14.1164 22.5935 18.1271 22.5935 20.6226 20.1426C20.7796 19.9883 20.9418 19.8436 21.1086 19.7084C23.1994 17.2014 23.0672 13.4962 20.7118 11.1408C20.4234 10.8524 20.1683 10.5432 19.9465 10.218C17.4533 8.40135 13.9641 8.61983 11.7105 10.8734C9.17042 13.369 5.11516 13.369 2.61962 10.8734C2.17398 10.4278 1.81748 9.93761 1.50554 9.40285C0.213201 6.99643 0.569707 3.92157 2.61962 1.87166C5.11516 -0.623886 9.17042 -0.623886 11.6214 1.87166C14.1169 4.32264 18.1276 4.32264 20.6232 1.87166C23.2078 -0.623886 27.2185 -0.623886 29.7141 1.87166Z" fill="#284E95"/>
</svg>
