<svg width="57" height="31" viewBox="0 0 57 31" fill="none" xmlns="http://www.w3.org/2000/svg">
<path fill-rule="evenodd" clip-rule="evenodd" d="M18.5727 30.7041C22.3161 30.7041 25.792 29.7237 28.644 28.0303C23.9649 25.2674 20.89 20.5882 20.8455 15.3298C20.8455 10.0713 23.9649 5.43672 28.644 2.6738C25.7474 0.980392 22.3161 0 18.5727 0C8.72426 0 0.747437 6.86274 0.747437 15.3743C0.747437 23.8413 8.72426 30.7041 18.5727 30.7041ZM38.7154 30.6595C48.5638 30.6595 56.5406 23.7968 56.5406 15.3298C56.5406 6.86274 48.5638 0 38.7154 0C34.972 0 31.4961 0.980392 28.6441 2.6738C33.3678 5.43672 36.4426 10.0713 36.4426 15.3298C36.4426 20.5882 33.3232 25.2228 28.6441 27.9857C31.5407 29.6791 34.972 30.6595 38.7154 30.6595Z" fill="#AE1F24"/>
</svg>
