<svg width="43" height="42" viewBox="0 0 43 42" fill="none" xmlns="http://www.w3.org/2000/svg">
<path fill-rule="evenodd" clip-rule="evenodd" d="M21.1575 20.41C14.4285 20.2763 7.74399 15.8645 3.91155 7.13012L0.747559 0L7.87768 3.16399C16.6121 6.99643 21.0238 13.6809 21.1575 20.41ZM39.072 7.13017L42.1914 0.0446096L35.1059 3.16404C26.3715 6.99648 21.9597 13.681 21.826 20.41C28.5551 20.2318 35.2395 15.82 39.072 7.13017ZM35.0613 38.2798L42.1914 41.4438L39.072 34.3583C35.2395 25.6239 28.555 21.2121 21.7814 21.0339C21.9597 27.7629 26.3714 34.4474 35.0613 38.2798ZM7.87768 38.3244C16.6121 34.492 21.0238 27.8075 21.1575 21.0785C14.4285 21.2122 7.74399 25.6239 3.91155 34.3583L0.747559 41.4884L7.87768 38.3244Z" fill="#417648"/>
</svg>
